<?xml version="1.0" encoding="UTF-8" standalone="no"?>
<svg
   xmlns:dc="http://purl.org/dc/elements/1.1/"
   xmlns:cc="http://creativecommons.org/ns#"
   xmlns:rdf="http://www.w3.org/1999/02/22-rdf-syntax-ns#"
   xmlns:svg="http://www.w3.org/2000/svg"
   xmlns="http://www.w3.org/2000/svg"
   xmlns:sodipodi="http://sodipodi.sourceforge.net/DTD/sodipodi-0.dtd"
   xmlns:inkscape="http://www.inkscape.org/namespaces/inkscape"
   viewBox="0 0 1000 500"
   aria-labelledby="title"
   aria-describedby="desc"
   role="img"
   version="1.1"
   id="svg10"
   sodipodi:docname="twilio-banner-inverse.svg"
   inkscape:version="0.92.4 (5da689c313, 2019-01-14)"
   width="1000"
   height="500">
  <metadata
     id="metadata16">
    <rdf:RDF>
      <cc:Work
         rdf:about="">
        <dc:format>image/svg+xml</dc:format>
        <dc:type
           rdf:resource="http://purl.org/dc/dcmitype/StillImage" />
        <dc:title>Ticket</dc:title>
      </cc:Work>
    </rdf:RDF>
  </metadata>
  <defs
     id="defs14" />
  <sodipodi:namedview
     pagecolor="#ffffff"
     bordercolor="#666666"
     borderopacity="1"
     objecttolerance="10"
     gridtolerance="10"
     guidetolerance="10"
     inkscape:pageopacity="0"
     inkscape:pageshadow="2"
     inkscape:window-width="1920"
     inkscape:window-height="1012"
     id="namedview12"
     showgrid="false"
     inkscape:zoom="0.7071068"
     inkscape:cx="289.23191"
     inkscape:cy="298.30884"
     inkscape:window-x="-8"
     inkscape:window-y="-8"
     inkscape:window-maximized="1"
     inkscape:current-layer="svg10"
     showguides="true"
     inkscape:guide-bbox="true"
     inkscape:measure-start="25.1142,38.8047"
     inkscape:measure-end="25.1142,42.6253"
     inkscape:lockguides="false">
    <sodipodi:guide
       position="500,-0.07421875"
       orientation="1,0"
       id="guide4668"
       inkscape:locked="false" />
    <sodipodi:guide
       position="1000.2539,250.00781"
       orientation="0,1"
       id="guide4670"
       inkscape:locked="false" />
  </sodipodi:namedview>
  <title
     id="title2">Ticket</title>
  <desc
     id="desc4">A line styled icon from Orion Icon Library.</desc>
  <rect
     style="opacity:1;fill:#f22f46;fill-opacity:1;fill-rule:evenodd;stroke:none;stroke-width:1.99937022;stroke-linecap:square;stroke-linejoin:miter;stroke-miterlimit:10;stroke-dasharray:none;stroke-dashoffset:0;stroke-opacity:1;paint-order:normal"
     id="rect4658"
     width="1000"
     height="500"
     x="0"
     y="-5.9999998e-008"
     inkscape:export-xdpi="96"
     inkscape:export-ydpi="96" />
  <g
     id="g4610"
     transform="matrix(7.3781627,0,0,7.3781627,137.9422,-100.12763)"
     style="stroke-width:0.13553509"
     inkscape:export-xdpi="96"
     inkscape:export-ydpi="96" />
  <path
     inkscape:connector-curvature="0"
     d="m 258.21464,224.66048 c 0,11.59478 -9.54864,21.14343 -21.14343,21.14343 -11.59478,0 -21.14343,-9.54865 -21.14343,-21.14343 0,-11.59479 9.54865,-21.14344 21.14343,-21.14344 11.59479,0 21.14343,9.54865 21.14343,21.14344 z m -21.14343,29.32798 c -11.59478,0 -21.14343,9.54865 -21.14343,21.14343 0,11.59478 9.54865,21.14343 21.14343,21.14343 11.59479,0 21.14343,-9.54865 21.14343,-21.14343 0,-11.59478 -9.54864,-21.14343 -21.14343,-21.14343 z m 127.54263,-4.09228 c 0,56.60983 -45.69709,102.30692 -102.30692,102.30692 C 205.69709,352.2031 160,306.50601 160,249.89618 c 0,-56.60983 45.69709,-102.30692 102.30692,-102.30692 56.60983,0 102.30692,45.69709 102.30692,102.30692 z m -27.28184,0 c 0,-41.60481 -33.42026,-75.02507 -75.02508,-75.02507 -41.60481,0 -75.02507,33.42026 -75.02507,75.02507 0,41.60482 33.42026,75.02508 75.02507,75.02508 41.60482,0 75.02508,-33.42026 75.02508,-75.02508 z m -49.78937,4.09228 c -11.59479,0 -21.14343,9.54865 -21.14343,21.14343 0,11.59478 9.54864,21.14343 21.14343,21.14343 11.59478,0 21.14343,-9.54865 21.14343,-21.14343 0,-11.59478 -9.54865,-21.14343 -21.14343,-21.14343 z m 0,-50.47142 c -11.59479,0 -21.14343,9.54865 -21.14343,21.14344 0,11.59478 9.54864,21.14343 21.14343,21.14343 11.59478,0 21.14343,-9.54865 21.14343,-21.14343 0,-11.59479 -9.54865,-21.14344 -21.14343,-21.14344 z m 351.93581,-15.68706 c 0.68204,0 1.36409,0.68205 2.04614,1.3641 v 21.82547 c 0,1.36409 -1.3641,2.04614 -2.04614,2.04614 h -36.14845 c -1.36409,0 -2.04614,-1.36409 -2.04614,-2.04614 v -21.14343 c 0,-1.36409 1.3641,-2.04614 2.04614,-2.04614 z m -0.68205,30.69208 h -69.56871 c -0.68204,0 -2.04613,0.68205 -2.04613,2.04614 l -8.8666,34.10231 -0.68205,2.04613 -10.91274,-36.14844 c 0,-0.68205 -1.36409,-2.04614 -2.04614,-2.04614 h -27.28184 c -0.68205,0 -2.04614,0.68205 -2.04614,2.04614 l -10.23069,34.10231 -0.68205,2.04613 -0.68205,-2.04613 -4.09227,-17.05116 -4.09228,-17.05115 c 0,-0.68205 -1.36409,-2.04614 -2.04614,-2.04614 h -54.56369 v -29.32798 c 0,-0.68205 -1.36409,-2.04614 -2.72818,-1.3641 l -34.10231,10.91274 c -1.36409,0 -2.04614,0.68205 -2.04614,2.04614 v 18.41525 h -8.8666 c -0.68204,0 -2.04614,0.68204 -2.04614,2.04613 V 247.168 c 0,0.68204 0.68205,2.04614 2.04614,2.04614 h 8.8666 v 32.05616 c 0,22.50753 12.27683,32.73822 34.78435,32.73822 9.54865,0 18.41525,-2.04614 24.55367,-5.45637 V 281.2703 c 0,-1.36409 -1.3641,-2.04613 -2.04614,-1.36409 -3.41023,1.36409 -6.82046,2.04614 -9.54865,2.04614 -6.13841,0 -9.54864,-2.72818 -9.54864,-9.54865 v -23.18956 h 19.77933 c 0.68205,0 2.04614,-0.68205 2.04614,-2.04614 v -21.82548 l 25.91776,85.93781 c 0,0.68205 1.36409,2.04614 2.04613,2.04614 h 28.64594 c 0.68205,0 2.04614,-0.68204 2.04614,-2.04614 l 12.27683,-38.19458 6.13842,19.77934 5.45636,18.41524 c 0,0.68205 1.3641,2.04614 2.04614,2.04614 h 28.64594 c 0.68205,0 2.04614,-0.68204 2.04614,-2.04614 l 25.91775,-85.93781 v 85.93781 c 0,0.68205 0.68205,2.04614 2.04614,2.04614 h 34.78435 c 0.68205,0 2.04614,-0.68204 2.04614,-2.04614 V 220.5682 c 0,-0.68205 -0.68204,-2.04614 -1.36409,-2.04614 z m 45.69709,-30.69208 h -34.78435 c -0.68205,0 -2.04614,0.68205 -2.04614,2.04614 v 120.72217 c 0,0.68204 0.68205,2.04614 2.04614,2.04614 h 34.78435 c 0.68205,0 2.04614,-0.68205 2.04614,-2.04614 V 189.19408 c 0,-0.68205 -0.68205,-1.3641 -2.04614,-1.3641 z m 46.37914,0 h -36.14845 c -0.68204,0 -2.04613,0.68205 -2.04613,2.04614 v 21.14343 c 0,0.68205 0.68204,2.04614 2.04613,2.04614 h 36.14845 c 0.68205,0 2.04614,-0.68205 2.04614,-2.04614 v -21.82547 c 0,-0.68205 -0.68205,-1.3641 -2.04614,-1.3641 z m -0.68205,30.69208 h -34.78435 c -0.68205,0 -2.04614,0.68205 -2.04614,2.04614 v 89.34804 c 0,0.68205 0.68205,2.04614 2.04614,2.04614 h 34.78435 c 0.68205,0 2.04614,-0.68205 2.04614,-2.04614 V 220.5682 c 0,-0.68205 -0.68204,-2.04614 -2.04614,-2.04614 z m 109.80941,46.37914 c 0,25.91775 -21.8255,48.42527 -52.5175,48.42527 -30.01006,0 -51.83554,-22.50752 -51.83554,-48.42527 0,-25.91776 21.82548,-48.42528 52.51754,-48.42528 30.01,0 51.8355,22.50752 51.8355,48.42528 z m -36.8305,0.68204 c 0,-9.54864 -6.8204,-17.05115 -15.005,-16.3691 -8.8666,0 -15.005,7.5025 -15.005,16.3691 0,8.8666 6.8205,16.36911 15.005,16.36911 8.8666,0 15.005,-7.50251 15.005,-16.36911 z"
     id="path2"
     style="fill:#fffdfd;fill-opacity:1;stroke:none;stroke-width:1;stroke-opacity:1" />
</svg>
